<mxfile host="app.diagrams.net" modified="2021-02-09T08:52:43.078Z" agent="5.0 (Windows)" etag="4Fh_s9LONaPjpCtA-1CF" version="14.0.0" type="github">
  <diagram id="vlZMCVXYZLQBkwcgjIeW" name="Page-1">
    <mxGraphModel dx="3964" dy="1990" grid="1" gridSize="10" guides="1" tooltips="1" connect="1" arrows="1" fold="1" page="1" pageScale="1" pageWidth="827" pageHeight="1169" math="0" shadow="0">
      <root>
        <mxCell id="0" />
        <mxCell id="1" parent="0" />
        <mxCell id="Aq3l9y1NEmaX5fChTpc7-3" value="" style="aspect=fixed;pointerEvents=1;shadow=0;dashed=0;html=1;strokeColor=none;labelPosition=center;verticalLabelPosition=bottom;verticalAlign=top;align=center;fillColor=#00188D;shape=mxgraph.mscae.enterprise.application_server" parent="1" vertex="1">
          <mxGeometry x="-1113.44" y="-547.5" width="43" height="50" as="geometry" />
        </mxCell>
        <mxCell id="Aq3l9y1NEmaX5fChTpc7-8" value="" style="shape=image;html=1;verticalAlign=top;verticalLabelPosition=bottom;labelBackgroundColor=#ffffff;imageAspect=0;aspect=fixed;image=https://cdn2.iconfinder.com/data/icons/whcompare-isometric-web-hosting-servers/50/server-2-128.png" parent="1" vertex="1">
          <mxGeometry x="-698.44" y="-560" width="98" height="98" as="geometry" />
        </mxCell>
        <mxCell id="Aq3l9y1NEmaX5fChTpc7-11" value="" style="shape=image;html=1;verticalAlign=top;verticalLabelPosition=bottom;labelBackgroundColor=#ffffff;imageAspect=0;aspect=fixed;image=https://cdn0.iconfinder.com/data/icons/emoji-3-5/64/hand_phone_smartphone-128.png" parent="1" vertex="1">
          <mxGeometry x="-1607" y="-1039.5" width="38" height="38" as="geometry" />
        </mxCell>
        <mxCell id="Aq3l9y1NEmaX5fChTpc7-12" value="" style="shape=image;html=1;verticalAlign=top;verticalLabelPosition=bottom;labelBackgroundColor=#ffffff;imageAspect=0;aspect=fixed;image=https://cdn4.iconfinder.com/data/icons/for-your-interface-free-samples/128/Globe-128.png" parent="1" vertex="1">
          <mxGeometry x="-1398.78" y="-1050" width="59" height="59" as="geometry" />
        </mxCell>
        <mxCell id="Aq3l9y1NEmaX5fChTpc7-15" value="" style="fontColor=#0066CC;verticalAlign=top;verticalLabelPosition=bottom;labelPosition=center;align=center;html=1;outlineConnect=0;fillColor=#CCCCCC;strokeColor=#6881B3;gradientColor=none;gradientDirection=north;strokeWidth=2;shape=mxgraph.networks.firewall;" parent="1" vertex="1">
          <mxGeometry x="-1183.78" y="-1050" width="60" height="60.5" as="geometry" />
        </mxCell>
        <mxCell id="Aq3l9y1NEmaX5fChTpc7-27" value="" style="endArrow=classic;startArrow=classic;html=1;entryX=0.5;entryY=1;entryDx=0;entryDy=0;entryPerimeter=0;" parent="1" target="Aq3l9y1NEmaX5fChTpc7-103" edge="1">
          <mxGeometry width="50" height="50" relative="1" as="geometry">
            <mxPoint x="-660.44" y="-550" as="sourcePoint" />
            <mxPoint x="-660.44" y="-820" as="targetPoint" />
          </mxGeometry>
        </mxCell>
        <mxCell id="Aq3l9y1NEmaX5fChTpc7-31" value="Internet" style="text;html=1;align=center;verticalAlign=middle;resizable=0;points=[];autosize=1;" parent="1" vertex="1">
          <mxGeometry x="-1393.78" y="-999.5" width="50" height="20" as="geometry" />
        </mxCell>
        <mxCell id="Aq3l9y1NEmaX5fChTpc7-32" value="Firewall" style="text;html=1;align=center;verticalAlign=middle;resizable=0;points=[];autosize=1;" parent="1" vertex="1">
          <mxGeometry x="-1218.78" y="-991" width="60" height="20" as="geometry" />
        </mxCell>
        <mxCell id="Aq3l9y1NEmaX5fChTpc7-35" value="OTP Mobile App" style="text;html=1;align=center;verticalAlign=middle;resizable=0;points=[];autosize=1;fontStyle=1;fontSize=14;" parent="1" vertex="1">
          <mxGeometry x="-1637.1" y="-1002.26" width="120" height="20" as="geometry" />
        </mxCell>
        <mxCell id="Aq3l9y1NEmaX5fChTpc7-36" value="ESB Server " style="text;html=1;align=center;verticalAlign=middle;resizable=0;points=[];autosize=1;fontStyle=1;fontSize=14;" parent="1" vertex="1">
          <mxGeometry x="-735.44" y="-470" width="90" height="20" as="geometry" />
        </mxCell>
        <mxCell id="Aq3l9y1NEmaX5fChTpc7-38" value="" style="endArrow=classic;startArrow=classic;html=1;" parent="1" source="Aq3l9y1NEmaX5fChTpc7-12" edge="1">
          <mxGeometry width="50" height="50" relative="1" as="geometry">
            <mxPoint x="-1298.78" y="-969.5" as="sourcePoint" />
            <mxPoint x="-1188.78" y="-1019.5" as="targetPoint" />
          </mxGeometry>
        </mxCell>
        <mxCell id="Aq3l9y1NEmaX5fChTpc7-39" value="" style="endArrow=classic;startArrow=classic;html=1;exitX=1;exitY=0.5;exitDx=0;exitDy=0;" parent="1" source="Aq3l9y1NEmaX5fChTpc7-11" edge="1">
          <mxGeometry width="50" height="50" relative="1" as="geometry">
            <mxPoint x="-1498.78" y="-1019.5" as="sourcePoint" />
            <mxPoint x="-1393.78" y="-1019.5" as="targetPoint" />
          </mxGeometry>
        </mxCell>
        <mxCell id="Aq3l9y1NEmaX5fChTpc7-40" value="Administration Portal Server" style="text;html=1;align=center;verticalAlign=middle;resizable=0;points=[];autosize=1;fontStyle=1;fontSize=14;" parent="1" vertex="1">
          <mxGeometry x="-1161.44" y="-490" width="210" height="20" as="geometry" />
        </mxCell>
        <mxCell id="Aq3l9y1NEmaX5fChTpc7-43" value="" style="fontColor=#0066CC;verticalAlign=top;verticalLabelPosition=bottom;labelPosition=center;align=center;html=1;outlineConnect=0;fillColor=#CCCCCC;strokeColor=#6881B3;gradientColor=none;gradientDirection=north;strokeWidth=2;shape=mxgraph.networks.pc;" parent="1" vertex="1">
          <mxGeometry x="-1624" y="-536.87" width="21" height="20" as="geometry" />
        </mxCell>
        <mxCell id="Aq3l9y1NEmaX5fChTpc7-44" value="" style="aspect=fixed;pointerEvents=1;shadow=0;dashed=0;html=1;strokeColor=none;labelPosition=center;verticalLabelPosition=bottom;verticalAlign=top;align=center;fillColor=#00188D;shape=mxgraph.azure.laptop" parent="1" vertex="1">
          <mxGeometry x="-1610.44" y="-839" width="66.67" height="40.01" as="geometry" />
        </mxCell>
        <mxCell id="Aq3l9y1NEmaX5fChTpc7-45" value="" style="shape=image;html=1;verticalAlign=top;verticalLabelPosition=bottom;labelBackgroundColor=#ffffff;imageAspect=0;aspect=fixed;image=https://cdn4.iconfinder.com/data/icons/for-your-interface-free-samples/128/Globe-128.png" parent="1" vertex="1">
          <mxGeometry x="-1493" y="-860" width="59" height="59" as="geometry" />
        </mxCell>
        <mxCell id="Aq3l9y1NEmaX5fChTpc7-46" value="" style="shape=mxgraph.cisco.misc.lan_to_lan;html=1;dashed=0;fillColor=#036897;strokeColor=#ffffff;strokeWidth=2;verticalLabelPosition=bottom;verticalAlign=top" parent="1" vertex="1">
          <mxGeometry x="-1489" y="-545.62" width="55" height="55" as="geometry" />
        </mxCell>
        <mxCell id="Aq3l9y1NEmaX5fChTpc7-47" value="" style="fontColor=#0066CC;verticalAlign=top;verticalLabelPosition=bottom;labelPosition=center;align=center;html=1;outlineConnect=0;fillColor=#CCCCCC;strokeColor=#6881B3;gradientColor=none;gradientDirection=north;strokeWidth=2;shape=mxgraph.networks.firewall;" parent="1" vertex="1">
          <mxGeometry x="-1360" y="-862" width="60" height="60.5" as="geometry" />
        </mxCell>
        <mxCell id="Aq3l9y1NEmaX5fChTpc7-58" value="Intranet" style="text;html=1;align=center;verticalAlign=middle;resizable=0;points=[];autosize=1;" parent="1" vertex="1">
          <mxGeometry x="-1499" y="-490.62" width="50" height="20" as="geometry" />
        </mxCell>
        <mxCell id="Aq3l9y1NEmaX5fChTpc7-59" value="Admin Portal" style="text;html=1;align=center;verticalAlign=middle;resizable=0;points=[];autosize=1;fontStyle=1;fontSize=14;" parent="1" vertex="1">
          <mxGeometry x="-1643.77" y="-510" width="100" height="20" as="geometry" />
        </mxCell>
        <mxCell id="Aq3l9y1NEmaX5fChTpc7-63" value="" style="aspect=fixed;pointerEvents=1;shadow=0;dashed=0;html=1;strokeColor=none;labelPosition=center;verticalLabelPosition=bottom;verticalAlign=top;align=center;fillColor=#00188D;shape=mxgraph.mscae.enterprise.database_server" parent="1" vertex="1">
          <mxGeometry x="-1116.44" y="-355" width="38" height="50" as="geometry" />
        </mxCell>
        <mxCell id="Aq3l9y1NEmaX5fChTpc7-64" value="" style="endArrow=classic;startArrow=classic;html=1;entryX=0.209;entryY=1.04;entryDx=0;entryDy=0;entryPerimeter=0;exitX=0.316;exitY=0.02;exitDx=0;exitDy=0;exitPerimeter=0;" parent="1" source="Aq3l9y1NEmaX5fChTpc7-63" target="Aq3l9y1NEmaX5fChTpc7-3" edge="1">
          <mxGeometry width="50" height="50" relative="1" as="geometry">
            <mxPoint x="-944.94" y="-320" as="sourcePoint" />
            <mxPoint x="-944.94" y="-492" as="targetPoint" />
          </mxGeometry>
        </mxCell>
        <mxCell id="Aq3l9y1NEmaX5fChTpc7-66" value="" style="endArrow=classic;startArrow=classic;html=1;entryX=0;entryY=0.5;entryDx=0;entryDy=0;entryPerimeter=0;" parent="1" target="Aq3l9y1NEmaX5fChTpc7-3" edge="1">
          <mxGeometry width="50" height="50" relative="1" as="geometry">
            <mxPoint x="-1301" y="-520.62" as="sourcePoint" />
            <mxPoint x="-1137" y="-520.62" as="targetPoint" />
          </mxGeometry>
        </mxCell>
        <mxCell id="Aq3l9y1NEmaX5fChTpc7-67" value="" style="endArrow=classic;startArrow=classic;html=1;exitX=1;exitY=0.5;exitDx=0;exitDy=0;exitPerimeter=0;" parent="1" source="Aq3l9y1NEmaX5fChTpc7-46" edge="1">
          <mxGeometry width="50" height="50" relative="1" as="geometry">
            <mxPoint x="-1414" y="-470.62" as="sourcePoint" />
            <mxPoint x="-1364" y="-520.62" as="targetPoint" />
          </mxGeometry>
        </mxCell>
        <mxCell id="Aq3l9y1NEmaX5fChTpc7-69" value="" style="endArrow=classic;startArrow=classic;html=1;" parent="1" edge="1">
          <mxGeometry width="50" height="50" relative="1" as="geometry">
            <mxPoint x="-1572" y="-520.62" as="sourcePoint" />
            <mxPoint x="-1489" y="-520.62" as="targetPoint" />
          </mxGeometry>
        </mxCell>
        <mxCell id="Aq3l9y1NEmaX5fChTpc7-70" value="IB Database" style="text;html=1;align=center;verticalAlign=middle;resizable=0;points=[];autosize=1;fontStyle=1;fontSize=14;" parent="1" vertex="1">
          <mxGeometry x="-1076.44" y="-305" width="100" height="20" as="geometry" />
        </mxCell>
        <mxCell id="Aq3l9y1NEmaX5fChTpc7-74" value="" style="endArrow=classic;startArrow=classic;html=1;exitX=0.57;exitY=0.5;exitDx=0;exitDy=0;exitPerimeter=0;" parent="1" source="Aq3l9y1NEmaX5fChTpc7-3" edge="1">
          <mxGeometry width="50" height="50" relative="1" as="geometry">
            <mxPoint x="-860.44" y="-530" as="sourcePoint" />
            <mxPoint x="-680.44" y="-522" as="targetPoint" />
          </mxGeometry>
        </mxCell>
        <mxCell id="Aq3l9y1NEmaX5fChTpc7-75" value="" style="aspect=fixed;pointerEvents=1;shadow=0;dashed=0;html=1;strokeColor=none;labelPosition=center;verticalLabelPosition=bottom;verticalAlign=top;align=center;fillColor=#00188D;shape=mxgraph.mscae.enterprise.application_server" parent="1" vertex="1">
          <mxGeometry x="-1281.94" y="-730" width="43" height="50" as="geometry" />
        </mxCell>
        <mxCell id="Aq3l9y1NEmaX5fChTpc7-76" value="" style="endArrow=classic;startArrow=classic;html=1;exitX=0.57;exitY=0.5;exitDx=0;exitDy=0;exitPerimeter=0;" parent="1" edge="1">
          <mxGeometry width="50" height="50" relative="1" as="geometry">
            <mxPoint x="-1133.9299999999998" y="-835" as="sourcePoint" />
            <mxPoint x="-688.44" y="-543.9759144770735" as="targetPoint" />
            <Array as="points">
              <mxPoint x="-950" y="-720" />
            </Array>
          </mxGeometry>
        </mxCell>
        <mxCell id="Aq3l9y1NEmaX5fChTpc7-78" value="FCB Customer Application" style="text;html=1;align=center;verticalAlign=middle;resizable=0;points=[];autosize=1;fontStyle=1;fontSize=14;" parent="1" vertex="1">
          <mxGeometry x="-1403.78" y="-680" width="190" height="20" as="geometry" />
        </mxCell>
        <mxCell id="Aq3l9y1NEmaX5fChTpc7-79" value="IB API Server" style="text;html=1;align=center;verticalAlign=middle;resizable=0;points=[];autosize=1;fontStyle=1;fontSize=14;" parent="1" vertex="1">
          <mxGeometry x="-1140.44" y="-804.75" width="100" height="20" as="geometry" />
        </mxCell>
        <mxCell id="Aq3l9y1NEmaX5fChTpc7-80" value="" style="endArrow=classic;startArrow=classic;html=1;" parent="1" target="Aq3l9y1NEmaX5fChTpc7-15" edge="1">
          <mxGeometry width="50" height="50" relative="1" as="geometry">
            <mxPoint x="-1154.44" y="-864" as="sourcePoint" />
            <mxPoint x="-852.94" y="-995" as="targetPoint" />
          </mxGeometry>
        </mxCell>
        <mxCell id="Aq3l9y1NEmaX5fChTpc7-81" value="" style="endArrow=classic;startArrow=classic;html=1;exitX=0.712;exitY=0.373;exitDx=0;exitDy=0;exitPerimeter=0;" parent="1" edge="1">
          <mxGeometry width="50" height="50" relative="1" as="geometry">
            <mxPoint x="-1446.992" y="-832.243" as="sourcePoint" />
            <mxPoint x="-1364" y="-832.25" as="targetPoint" />
          </mxGeometry>
        </mxCell>
        <mxCell id="Aq3l9y1NEmaX5fChTpc7-82" value="" style="fontColor=#0066CC;verticalAlign=top;verticalLabelPosition=bottom;labelPosition=center;align=center;html=1;outlineConnect=0;fillColor=#CCCCCC;strokeColor=#6881B3;gradientColor=none;gradientDirection=north;strokeWidth=2;shape=mxgraph.networks.pc;" parent="1" vertex="1">
          <mxGeometry x="-1624" y="-838" width="21" height="20" as="geometry" />
        </mxCell>
        <mxCell id="Aq3l9y1NEmaX5fChTpc7-83" value="" style="aspect=fixed;pointerEvents=1;shadow=0;dashed=0;html=1;strokeColor=none;labelPosition=center;verticalLabelPosition=bottom;verticalAlign=top;align=center;fillColor=#00188D;shape=mxgraph.azure.laptop" parent="1" vertex="1">
          <mxGeometry x="-1603" y="-535.87" width="30" height="18" as="geometry" />
        </mxCell>
        <mxCell id="Aq3l9y1NEmaX5fChTpc7-85" value="" style="endArrow=classic;startArrow=classic;html=1;exitX=0.877;exitY=0.225;exitDx=0;exitDy=0;exitPerimeter=0;" parent="1" source="Aq3l9y1NEmaX5fChTpc7-44" edge="1">
          <mxGeometry width="50" height="50" relative="1" as="geometry">
            <mxPoint x="-1543.77" y="-828.5" as="sourcePoint" />
            <mxPoint x="-1482.77" y="-828.5" as="targetPoint" />
          </mxGeometry>
        </mxCell>
        <mxCell id="Aq3l9y1NEmaX5fChTpc7-4" value="" style="aspect=fixed;pointerEvents=1;shadow=0;dashed=0;html=1;strokeColor=none;labelPosition=center;verticalLabelPosition=bottom;verticalAlign=top;align=center;fillColor=#00188D;shape=mxgraph.mscae.enterprise.application_server" parent="1" vertex="1">
          <mxGeometry x="-1168.44" y="-860" width="43" height="50" as="geometry" />
        </mxCell>
        <mxCell id="Aq3l9y1NEmaX5fChTpc7-86" value="" style="endArrow=classic;startArrow=classic;html=1;exitX=0.605;exitY=0.37;exitDx=0;exitDy=0;exitPerimeter=0;entryX=0;entryY=1;entryDx=0;entryDy=0;entryPerimeter=0;" parent="1" source="Aq3l9y1NEmaX5fChTpc7-75" target="Aq3l9y1NEmaX5fChTpc7-4" edge="1">
          <mxGeometry width="50" height="50" relative="1" as="geometry">
            <mxPoint x="-1094.4250000000002" y="-819" as="sourcePoint" />
            <mxPoint x="-932.44" y="-820" as="targetPoint" />
          </mxGeometry>
        </mxCell>
        <mxCell id="Aq3l9y1NEmaX5fChTpc7-92" value="Internet" style="text;html=1;align=center;verticalAlign=middle;resizable=0;points=[];autosize=1;" parent="1" vertex="1">
          <mxGeometry x="-1490.44" y="-804" width="50" height="20" as="geometry" />
        </mxCell>
        <mxCell id="Aq3l9y1NEmaX5fChTpc7-93" value="" style="fontColor=#0066CC;verticalAlign=top;verticalLabelPosition=bottom;labelPosition=center;align=center;html=1;outlineConnect=0;fillColor=#CCCCCC;strokeColor=#6881B3;gradientColor=none;gradientDirection=north;strokeWidth=2;shape=mxgraph.networks.firewall;" parent="1" vertex="1">
          <mxGeometry x="-1364" y="-545.62" width="60" height="60.5" as="geometry" />
        </mxCell>
        <mxCell id="Aq3l9y1NEmaX5fChTpc7-94" value="" style="endArrow=classic;startArrow=classic;html=1;entryX=0.367;entryY=1;entryDx=0;entryDy=0;entryPerimeter=0;exitX=0.035;exitY=0.18;exitDx=0;exitDy=0;exitPerimeter=0;" parent="1" source="Aq3l9y1NEmaX5fChTpc7-75" target="Aq3l9y1NEmaX5fChTpc7-47" edge="1">
          <mxGeometry width="50" height="50" relative="1" as="geometry">
            <mxPoint x="-1151.44" y="-719.5" as="sourcePoint" />
            <mxPoint x="-1064.44" y="-720" as="targetPoint" />
            <Array as="points" />
          </mxGeometry>
        </mxCell>
        <mxCell id="Aq3l9y1NEmaX5fChTpc7-97" value="" style="endArrow=classic;startArrow=classic;html=1;exitX=0.02;exitY=0.01;exitDx=0;exitDy=0;exitPerimeter=0;entryX=0.744;entryY=1;entryDx=0;entryDy=0;entryPerimeter=0;" parent="1" source="Aq3l9y1NEmaX5fChTpc7-3" target="Aq3l9y1NEmaX5fChTpc7-4" edge="1">
          <mxGeometry width="50" height="50" relative="1" as="geometry">
            <mxPoint x="-1010.44" y="-738.25" as="sourcePoint" />
            <mxPoint x="-960.44" y="-788.25" as="targetPoint" />
          </mxGeometry>
        </mxCell>
        <mxCell id="Aq3l9y1NEmaX5fChTpc7-98" value="" style="fontColor=#0066CC;verticalAlign=top;verticalLabelPosition=bottom;labelPosition=center;align=center;html=1;outlineConnect=0;fillColor=#CCCCCC;strokeColor=#6881B3;gradientColor=none;gradientDirection=north;strokeWidth=2;shape=mxgraph.networks.mail_server;" parent="1" vertex="1">
          <mxGeometry x="-1005.44" y="-1140.5" width="105" height="85" as="geometry" />
        </mxCell>
        <mxCell id="Aq3l9y1NEmaX5fChTpc7-101" value="" style="endArrow=none;html=1;" parent="1" edge="1">
          <mxGeometry width="50" height="50" relative="1" as="geometry">
            <mxPoint x="-620.44" y="-507.25" as="sourcePoint" />
            <mxPoint x="-400.44000000000005" y="-507" as="targetPoint" />
          </mxGeometry>
        </mxCell>
        <mxCell id="Aq3l9y1NEmaX5fChTpc7-102" value="" style="endArrow=classic;startArrow=classic;html=1;entryX=0.316;entryY=0;entryDx=0;entryDy=0;entryPerimeter=0;" parent="1" source="Aq3l9y1NEmaX5fChTpc7-98" target="eiKPa030-csMNNnfVRBG-1" edge="1">
          <mxGeometry width="50" height="50" relative="1" as="geometry">
            <mxPoint x="-520.44" y="-456.25" as="sourcePoint" />
            <mxPoint x="-910" y="-992" as="targetPoint" />
            <Array as="points" />
          </mxGeometry>
        </mxCell>
        <mxCell id="Aq3l9y1NEmaX5fChTpc7-103" value="" style="fontColor=#0066CC;verticalAlign=top;verticalLabelPosition=bottom;labelPosition=center;align=center;html=1;outlineConnect=0;fillColor=#CCCCCC;strokeColor=#6881B3;gradientColor=none;gradientDirection=north;strokeWidth=2;shape=mxgraph.networks.firewall;" parent="1" vertex="1">
          <mxGeometry x="-690.94" y="-979.25" width="60" height="60.5" as="geometry" />
        </mxCell>
        <mxCell id="Aq3l9y1NEmaX5fChTpc7-108" value="" style="endArrow=none;html=1;" parent="1" edge="1">
          <mxGeometry width="50" height="50" relative="1" as="geometry">
            <mxPoint x="-510.44000000000005" y="-860" as="sourcePoint" />
            <mxPoint x="-510.44000000000005" y="-1030" as="targetPoint" />
          </mxGeometry>
        </mxCell>
        <mxCell id="Aq3l9y1NEmaX5fChTpc7-112" value="" style="aspect=fixed;html=1;points=[];align=center;image;fontSize=12;image=img/lib/mscae/API_Management.svg;" parent="1" vertex="1">
          <mxGeometry x="-465.44000000000005" y="-803" width="50" height="42" as="geometry" />
        </mxCell>
        <mxCell id="Aq3l9y1NEmaX5fChTpc7-113" value="" style="aspect=fixed;html=1;points=[];align=center;image;fontSize=12;image=img/lib/mscae/API_Management.svg;" parent="1" vertex="1">
          <mxGeometry x="-350.00000000000006" y="-963.5" width="50" height="42" as="geometry" />
        </mxCell>
        <mxCell id="Aq3l9y1NEmaX5fChTpc7-114" value="" style="aspect=fixed;html=1;points=[];align=center;image;fontSize=12;image=img/lib/mscae/API_Management.svg;" parent="1" vertex="1">
          <mxGeometry x="-465.44000000000005" y="-970" width="50" height="42" as="geometry" />
        </mxCell>
        <mxCell id="Aq3l9y1NEmaX5fChTpc7-117" value="" style="endArrow=none;html=1;" parent="1" edge="1">
          <mxGeometry width="50" height="50" relative="1" as="geometry">
            <mxPoint x="-510.44000000000005" y="-1030.76" as="sourcePoint" />
            <mxPoint x="-320" y="-1031" as="targetPoint" />
          </mxGeometry>
        </mxCell>
        <mxCell id="Aq3l9y1NEmaX5fChTpc7-118" value="" style="aspect=fixed;html=1;points=[];align=center;image;fontSize=12;image=img/lib/mscae/API_Management.svg;" parent="1" vertex="1">
          <mxGeometry x="-360.00000000000006" y="-804" width="50" height="42" as="geometry" />
        </mxCell>
        <mxCell id="Aq3l9y1NEmaX5fChTpc7-119" value="" style="endArrow=none;html=1;" parent="1" edge="1">
          <mxGeometry width="50" height="50" relative="1" as="geometry">
            <mxPoint x="-510.44000000000005" y="-860" as="sourcePoint" />
            <mxPoint x="-330" y="-860" as="targetPoint" />
          </mxGeometry>
        </mxCell>
        <mxCell id="Aq3l9y1NEmaX5fChTpc7-120" value="" style="endArrow=classic;html=1;entryX=0.3;entryY=0.238;entryDx=0;entryDy=0;entryPerimeter=0;" parent="1" target="Aq3l9y1NEmaX5fChTpc7-114" edge="1">
          <mxGeometry width="50" height="50" relative="1" as="geometry">
            <mxPoint x="-450.44000000000005" y="-1030.76" as="sourcePoint" />
            <mxPoint x="-400.44000000000005" y="-1080.76" as="targetPoint" />
          </mxGeometry>
        </mxCell>
        <mxCell id="Aq3l9y1NEmaX5fChTpc7-121" value="" style="endArrow=classic;html=1;entryX=0.3;entryY=0.238;entryDx=0;entryDy=0;entryPerimeter=0;" parent="1" edge="1">
          <mxGeometry width="50" height="50" relative="1" as="geometry">
            <mxPoint x="-450.44000000000005" y="-1030.76" as="sourcePoint" />
            <mxPoint x="-450.44000000000005" y="-960.004" as="targetPoint" />
          </mxGeometry>
        </mxCell>
        <mxCell id="Aq3l9y1NEmaX5fChTpc7-123" value="" style="endArrow=classic;html=1;entryX=0.3;entryY=0.238;entryDx=0;entryDy=0;entryPerimeter=0;" parent="1" edge="1">
          <mxGeometry width="50" height="50" relative="1" as="geometry">
            <mxPoint x="-320.44000000000005" y="-1034.2599999999998" as="sourcePoint" />
            <mxPoint x="-320.44000000000005" y="-963.504" as="targetPoint" />
          </mxGeometry>
        </mxCell>
        <mxCell id="Aq3l9y1NEmaX5fChTpc7-124" value="" style="endArrow=classic;html=1;entryX=0.3;entryY=0.238;entryDx=0;entryDy=0;entryPerimeter=0;" parent="1" edge="1">
          <mxGeometry width="50" height="50" relative="1" as="geometry">
            <mxPoint x="-450.44000000000005" y="-859.01" as="sourcePoint" />
            <mxPoint x="-450.44000000000005" y="-788.254" as="targetPoint" />
          </mxGeometry>
        </mxCell>
        <mxCell id="Aq3l9y1NEmaX5fChTpc7-126" value="" style="endArrow=classic;html=1;" parent="1" edge="1">
          <mxGeometry width="50" height="50" relative="1" as="geometry">
            <mxPoint x="-330.00000000000006" y="-858.99" as="sourcePoint" />
            <mxPoint x="-329.5" y="-798.99" as="targetPoint" />
          </mxGeometry>
        </mxCell>
        <mxCell id="Aq3l9y1NEmaX5fChTpc7-127" value="Pesalink" style="text;html=1;align=center;verticalAlign=middle;resizable=0;points=[];autosize=1;fontStyle=1" parent="1" vertex="1">
          <mxGeometry x="-480.44000000000005" y="-760" width="60" height="20" as="geometry" />
        </mxCell>
        <mxCell id="Aq3l9y1NEmaX5fChTpc7-129" value="IPRS" style="text;html=1;align=center;verticalAlign=middle;resizable=0;points=[];autosize=1;fontStyle=1" parent="1" vertex="1">
          <mxGeometry x="-355.00000000000006" y="-760" width="40" height="20" as="geometry" />
        </mxCell>
        <mxCell id="Aq3l9y1NEmaX5fChTpc7-130" value="CRB" style="text;html=1;align=center;verticalAlign=middle;resizable=0;points=[];autosize=1;fontStyle=1" parent="1" vertex="1">
          <mxGeometry x="-460.44000000000005" y="-930" width="40" height="20" as="geometry" />
        </mxCell>
        <mxCell id="Aq3l9y1NEmaX5fChTpc7-131" value="SMS Gateway" style="text;html=1;align=center;verticalAlign=middle;resizable=0;points=[];autosize=1;fontStyle=1" parent="1" vertex="1">
          <mxGeometry x="-360.00000000000006" y="-918.75" width="90" height="20" as="geometry" />
        </mxCell>
        <mxCell id="Aq3l9y1NEmaX5fChTpc7-133" value="" style="shape=image;html=1;verticalAlign=top;verticalLabelPosition=bottom;labelBackgroundColor=#ffffff;imageAspect=0;aspect=fixed;image=https://cdn2.iconfinder.com/data/icons/whcompare-isometric-web-hosting-servers/50/server-rack-128.png" parent="1" vertex="1">
          <mxGeometry x="-555.44" y="-380" width="110" height="110" as="geometry" />
        </mxCell>
        <mxCell id="Aq3l9y1NEmaX5fChTpc7-134" value="Mail Server" style="text;html=1;align=center;verticalAlign=middle;resizable=0;points=[];autosize=1;fontStyle=1;fontSize=14;" parent="1" vertex="1">
          <mxGeometry x="-930.44" y="-1059.5" width="90" height="20" as="geometry" />
        </mxCell>
        <mxCell id="Aq3l9y1NEmaX5fChTpc7-140" value="FCB CBS" style="text;html=1;align=center;verticalAlign=middle;resizable=0;points=[];autosize=1;fontStyle=1;fontSize=14;" parent="1" vertex="1">
          <mxGeometry x="-474.44000000000005" y="-305" width="80" height="20" as="geometry" />
        </mxCell>
        <mxCell id="Aq3l9y1NEmaX5fChTpc7-141" value="HTTPS" style="text;html=1;align=center;verticalAlign=middle;resizable=0;points=[];autosize=1;fontStyle=2" parent="1" vertex="1">
          <mxGeometry x="-439.44000000000005" y="-440" width="50" height="20" as="geometry" />
        </mxCell>
        <mxCell id="Aq3l9y1NEmaX5fChTpc7-142" value="Transaction,Enquiries, statements" style="text;html=1;align=center;verticalAlign=middle;resizable=0;points=[];autosize=1;fontStyle=2" parent="1" vertex="1">
          <mxGeometry x="-509.44000000000005" y="-460" width="190" height="20" as="geometry" />
        </mxCell>
        <mxCell id="Aq3l9y1NEmaX5fChTpc7-151" value="TCP" style="text;html=1;align=center;verticalAlign=middle;resizable=0;points=[];autosize=1;fontStyle=2" parent="1" vertex="1">
          <mxGeometry x="-650.44" y="-430" width="40" height="20" as="geometry" />
        </mxCell>
        <mxCell id="Aq3l9y1NEmaX5fChTpc7-152" value="&lt;div&gt;Customer transactions, Customer Reg,&lt;/div&gt;&lt;div&gt;Parameterization,reports&lt;/div&gt;" style="text;html=1;align=center;verticalAlign=middle;resizable=0;points=[];autosize=1;fontStyle=2" parent="1" vertex="1">
          <mxGeometry x="-780.44" y="-400" width="220" height="30" as="geometry" />
        </mxCell>
        <mxCell id="Aq3l9y1NEmaX5fChTpc7-154" value="TCP" style="text;html=1;align=center;verticalAlign=middle;resizable=0;points=[];autosize=1;fontStyle=2" parent="1" vertex="1">
          <mxGeometry x="-1046.44" y="-938.75" width="40" height="20" as="geometry" />
        </mxCell>
        <mxCell id="Aq3l9y1NEmaX5fChTpc7-157" value="HTTPS" style="text;html=1;align=center;verticalAlign=middle;resizable=0;points=[];autosize=1;fontStyle=2" parent="1" vertex="1">
          <mxGeometry x="-1147.44" y="-756.5" width="50" height="20" as="geometry" />
        </mxCell>
        <mxCell id="Aq3l9y1NEmaX5fChTpc7-158" value="HTTPS" style="text;html=1;align=center;verticalAlign=middle;resizable=0;points=[];autosize=1;fontStyle=2" parent="1" vertex="1">
          <mxGeometry x="-1259" y="-756.5" width="50" height="20" as="geometry" />
        </mxCell>
        <mxCell id="Aq3l9y1NEmaX5fChTpc7-159" value="HTTPS" style="text;html=1;align=center;verticalAlign=middle;resizable=0;points=[];autosize=1;fontStyle=2" parent="1" vertex="1">
          <mxGeometry x="-956.44" y="-730" width="50" height="20" as="geometry" />
        </mxCell>
        <mxCell id="Aq3l9y1NEmaX5fChTpc7-160" value="Customer transactions, enquiries" style="text;html=1;align=center;verticalAlign=middle;resizable=0;points=[];autosize=1;fontStyle=2" parent="1" vertex="1">
          <mxGeometry x="-1006.44" y="-700" width="190" height="20" as="geometry" />
        </mxCell>
        <mxCell id="Aq3l9y1NEmaX5fChTpc7-162" value="Parameterization,EOD,user mngt,reports" style="text;html=1;strokeColor=none;fillColor=none;align=center;verticalAlign=middle;whiteSpace=wrap;rounded=0;fontStyle=2" parent="1" vertex="1">
          <mxGeometry x="-1113.44" y="-402.5" width="100" height="20" as="geometry" />
        </mxCell>
        <mxCell id="Aq3l9y1NEmaX5fChTpc7-163" value="HTTPS" style="text;html=1;align=center;verticalAlign=middle;resizable=0;points=[];autosize=1;fontStyle=2" parent="1" vertex="1">
          <mxGeometry x="-1302.5" y="-517.87" width="50" height="20" as="geometry" />
        </mxCell>
        <mxCell id="Aq3l9y1NEmaX5fChTpc7-166" value="&lt;div&gt;Send customer activation mails&lt;/div&gt;&lt;div&gt;, chat module&lt;br&gt;&lt;/div&gt;" style="text;html=1;align=center;verticalAlign=middle;resizable=0;points=[];autosize=1;fontStyle=2" parent="1" vertex="1">
          <mxGeometry x="-1136.44" y="-640" width="180" height="30" as="geometry" />
        </mxCell>
        <mxCell id="Aq3l9y1NEmaX5fChTpc7-167" value="HTTPS" style="text;html=1;align=center;verticalAlign=middle;resizable=0;points=[];autosize=1;fontStyle=2" parent="1" vertex="1">
          <mxGeometry x="-1158.78" y="-971" width="50" height="20" as="geometry" />
        </mxCell>
        <mxCell id="Aq3l9y1NEmaX5fChTpc7-168" value="Customer softtoken profile, softtoken code" style="text;html=1;align=center;verticalAlign=middle;resizable=0;points=[];autosize=1;fontStyle=2" parent="1" vertex="1">
          <mxGeometry x="-1339.78" y="-941.5" width="240" height="20" as="geometry" />
        </mxCell>
        <mxCell id="Aq3l9y1NEmaX5fChTpc7-169" value="" style="endArrow=classic;startArrow=classic;html=1;" parent="1" source="Aq3l9y1NEmaX5fChTpc7-103" target="Aq3l9y1NEmaX5fChTpc7-170" edge="1">
          <mxGeometry width="50" height="50" relative="1" as="geometry">
            <mxPoint x="-279.44000000000005" y="-660" as="sourcePoint" />
            <mxPoint x="-170.44000000000005" y="-660" as="targetPoint" />
          </mxGeometry>
        </mxCell>
        <mxCell id="Aq3l9y1NEmaX5fChTpc7-170" value="" style="aspect=fixed;html=1;points=[];align=center;image;fontSize=12;image=img/lib/mscae/API_Management.svg;" parent="1" vertex="1">
          <mxGeometry x="-685.94" y="-1150" width="50" height="42" as="geometry" />
        </mxCell>
        <mxCell id="Aq3l9y1NEmaX5fChTpc7-171" value="Eclectics Payments Gateway" style="text;html=1;align=center;verticalAlign=middle;resizable=0;points=[];autosize=1;fontStyle=1;fontSize=14;" parent="1" vertex="1">
          <mxGeometry x="-855.44" y="-1100" width="210" height="20" as="geometry" />
        </mxCell>
        <mxCell id="Aq3l9y1NEmaX5fChTpc7-172" value="VPN/P2P" style="text;html=1;align=center;verticalAlign=middle;resizable=0;points=[];autosize=1;fontStyle=2" parent="1" vertex="1">
          <mxGeometry x="-670.44" y="-1060" width="70" height="20" as="geometry" />
        </mxCell>
        <mxCell id="Aq3l9y1NEmaX5fChTpc7-173" value="Utility bill payments, Mobile money, SMS alert" style="text;html=1;align=center;verticalAlign=middle;resizable=0;points=[];autosize=1;fontStyle=2" parent="1" vertex="1">
          <mxGeometry x="-650.44" y="-1100" width="250" height="20" as="geometry" />
        </mxCell>
        <mxCell id="Aq3l9y1NEmaX5fChTpc7-174" value="Customer transactions, enquiries" style="text;html=1;align=center;verticalAlign=middle;resizable=0;points=[];autosize=1;fontStyle=2" parent="1" vertex="1">
          <mxGeometry x="-610.44" y="-535" width="190" height="20" as="geometry" />
        </mxCell>
        <mxCell id="kuEqGsdX-IRRBBPaeEPA-1" value="port:TBA" style="text;html=1;align=center;verticalAlign=middle;resizable=0;points=[];autosize=1;fillColor=#fff2cc;strokeColor=#d6b656;" parent="1" vertex="1">
          <mxGeometry x="-1086.44" y="-547.5" width="60" height="20" as="geometry" />
        </mxCell>
        <mxCell id="kuEqGsdX-IRRBBPaeEPA-2" value="port: TBA" style="text;html=1;align=center;verticalAlign=middle;resizable=0;points=[];autosize=1;fillColor=#fff2cc;strokeColor=#d6b656;" parent="1" vertex="1">
          <mxGeometry x="-1233.44" y="-858" width="60" height="20" as="geometry" />
        </mxCell>
        <mxCell id="kuEqGsdX-IRRBBPaeEPA-4" value="port: TBA" style="text;html=1;align=center;verticalAlign=middle;resizable=0;points=[];autosize=1;fillColor=#fff2cc;strokeColor=#d6b656;" parent="1" vertex="1">
          <mxGeometry x="-1135.44" y="-784" width="60" height="20" as="geometry" />
        </mxCell>
        <mxCell id="kuEqGsdX-IRRBBPaeEPA-6" value="port: TBA" style="text;html=1;align=center;verticalAlign=middle;resizable=0;points=[];autosize=1;fillColor=#fff2cc;strokeColor=#d6b656;" parent="1" vertex="1">
          <mxGeometry x="-615.44" y="-560" width="60" height="20" as="geometry" />
        </mxCell>
        <mxCell id="kuEqGsdX-IRRBBPaeEPA-7" value="HTTPS" style="text;html=1;align=center;verticalAlign=middle;resizable=0;points=[];autosize=1;fontStyle=2" parent="1" vertex="1">
          <mxGeometry x="-770.44" y="-517.5" width="50" height="20" as="geometry" />
        </mxCell>
        <mxCell id="kuEqGsdX-IRRBBPaeEPA-9" value="port: TBA" style="text;html=1;align=center;verticalAlign=middle;resizable=0;points=[];autosize=1;fillColor=#fff2cc;strokeColor=#d6b656;" parent="1" vertex="1">
          <mxGeometry x="-1093.44" y="-375" width="60" height="20" as="geometry" />
        </mxCell>
        <mxCell id="kuEqGsdX-IRRBBPaeEPA-10" value="port: 25" style="text;html=1;align=center;verticalAlign=middle;resizable=0;points=[];autosize=1;fillColor=#fff2cc;strokeColor=#d6b656;" parent="1" vertex="1">
          <mxGeometry x="-900.44" y="-970" width="50" height="20" as="geometry" />
        </mxCell>
        <mxCell id="kuEqGsdX-IRRBBPaeEPA-11" value="port: TBA" style="text;html=1;align=center;verticalAlign=middle;resizable=0;points=[];autosize=1;fillColor=#fff2cc;strokeColor=#d6b656;" parent="1" vertex="1">
          <mxGeometry x="-379.44000000000005" y="-440" width="60" height="20" as="geometry" />
        </mxCell>
        <mxCell id="kuEqGsdX-IRRBBPaeEPA-12" value="Transactions, emials" style="text;html=1;align=center;verticalAlign=middle;resizable=0;points=[];autosize=1;fontStyle=2;rotation=0;" parent="1" vertex="1">
          <mxGeometry x="-883.44" y="-545.62" width="120" height="20" as="geometry" />
        </mxCell>
        <mxCell id="kuEqGsdX-IRRBBPaeEPA-14" value="" style="endArrow=classic;startArrow=classic;html=1;" parent="1" edge="1">
          <mxGeometry width="50" height="50" relative="1" as="geometry">
            <mxPoint x="-631.44" y="-940" as="sourcePoint" />
            <mxPoint x="-510.44000000000005" y="-940" as="targetPoint" />
          </mxGeometry>
        </mxCell>
        <mxCell id="kuEqGsdX-IRRBBPaeEPA-16" value="TCP,HTTPS, VPN" style="text;html=1;align=center;verticalAlign=middle;resizable=0;points=[];autosize=1;fontStyle=2" parent="1" vertex="1">
          <mxGeometry x="-620.44" y="-965" width="110" height="20" as="geometry" />
        </mxCell>
        <mxCell id="OoRZPNWYE0Wf7Jrd-ZL6-1" value="Internet Banking App" style="text;html=1;align=center;verticalAlign=middle;resizable=0;points=[];autosize=1;fontStyle=1;fontSize=14;" parent="1" vertex="1">
          <mxGeometry x="-1657.1100000000001" y="-798.5" width="160" height="20" as="geometry" />
        </mxCell>
        <mxCell id="OoRZPNWYE0Wf7Jrd-ZL6-7" value="" style="endArrow=classic;startArrow=classic;html=1;exitX=0.628;exitY=0.2;exitDx=0;exitDy=0;exitPerimeter=0;entryX=0;entryY=0.5;entryDx=0;entryDy=0;entryPerimeter=0;" parent="1" source="Aq3l9y1NEmaX5fChTpc7-4" target="eiKPa030-csMNNnfVRBG-1" edge="1">
          <mxGeometry width="50" height="50" relative="1" as="geometry">
            <mxPoint x="-1096.1399999999999" y="-757.4999999999999" as="sourcePoint" />
            <mxPoint x="-920.44" y="-1000.63" as="targetPoint" />
          </mxGeometry>
        </mxCell>
        <mxCell id="OoRZPNWYE0Wf7Jrd-ZL6-8" value="send email notifications" style="text;html=1;align=center;verticalAlign=middle;resizable=0;points=[];autosize=1;fontStyle=2" parent="1" vertex="1">
          <mxGeometry x="-1015.44" y="-1009.5" width="140" height="20" as="geometry" />
        </mxCell>
        <mxCell id="OoRZPNWYE0Wf7Jrd-ZL6-10" value="" style="endArrow=classic;html=1;" parent="1" edge="1">
          <mxGeometry width="50" height="50" relative="1" as="geometry">
            <mxPoint x="-650" y="-320" as="sourcePoint" />
            <mxPoint x="-650.44" y="-476" as="targetPoint" />
          </mxGeometry>
        </mxCell>
        <mxCell id="OoRZPNWYE0Wf7Jrd-ZL6-23" value="" style="endArrow=classic;html=1;entryX=0.209;entryY=1;entryDx=0;entryDy=0;entryPerimeter=0;" parent="1" target="Aq3l9y1NEmaX5fChTpc7-4" edge="1">
          <mxGeometry width="50" height="50" relative="1" as="geometry">
            <mxPoint x="-1159" y="-330" as="sourcePoint" />
            <mxPoint x="-1202.5" y="-260" as="targetPoint" />
          </mxGeometry>
        </mxCell>
        <mxCell id="OoRZPNWYE0Wf7Jrd-ZL6-24" value="TCP" style="text;html=1;align=center;verticalAlign=middle;resizable=0;points=[];autosize=1;fontStyle=2" parent="1" vertex="1">
          <mxGeometry x="-1190.44" y="-450" width="40" height="20" as="geometry" />
        </mxCell>
        <mxCell id="OXPRm50pmL5pdGLu3SYb-5" value="" style="endArrow=classic;html=1;fontSize=14;entryX=0;entryY=0.5;entryDx=0;entryDy=0;entryPerimeter=0;" parent="1" target="Aq3l9y1NEmaX5fChTpc7-63" edge="1">
          <mxGeometry width="50" height="50" relative="1" as="geometry">
            <mxPoint x="-1158.78" y="-330" as="sourcePoint" />
            <mxPoint x="-1108.78" y="-380" as="targetPoint" />
          </mxGeometry>
        </mxCell>
        <mxCell id="eiKPa030-csMNNnfVRBG-1" value="" style="fontColor=#0066CC;verticalAlign=top;verticalLabelPosition=bottom;labelPosition=center;align=center;html=1;outlineConnect=0;fillColor=#CCCCCC;strokeColor=#6881B3;gradientColor=none;gradientDirection=north;strokeWidth=2;shape=mxgraph.networks.firewall;" parent="1" vertex="1">
          <mxGeometry x="-970" y="-980" width="69.56" height="70.5" as="geometry" />
        </mxCell>
        <mxCell id="eiKPa030-csMNNnfVRBG-4" value="" style="endArrow=classic;startArrow=classic;html=1;" parent="1" source="eiKPa030-csMNNnfVRBG-1" edge="1">
          <mxGeometry width="50" height="50" relative="1" as="geometry">
            <mxPoint x="-900.44" y="-915" as="sourcePoint" />
            <mxPoint x="-670" y="-550" as="targetPoint" />
          </mxGeometry>
        </mxCell>
        <mxCell id="eiKPa030-csMNNnfVRBG-6" value="TCP" style="text;html=1;align=center;verticalAlign=middle;resizable=0;points=[];autosize=1;" parent="1" vertex="1">
          <mxGeometry x="-880" y="-870" width="40" height="20" as="geometry" />
        </mxCell>
        <mxCell id="oqRCxf0HyZeEFnFjLMWH-3" value="" style="endArrow=classic;html=1;entryX=1.064;entryY=0.7;entryDx=0;entryDy=0;entryPerimeter=0;" parent="1" target="Aq3l9y1NEmaX5fChTpc7-63" edge="1">
          <mxGeometry width="50" height="50" relative="1" as="geometry">
            <mxPoint x="-650" y="-320" as="sourcePoint" />
            <mxPoint x="-1060" y="-320" as="targetPoint" />
          </mxGeometry>
        </mxCell>
        <mxCell id="oqRCxf0HyZeEFnFjLMWH-4" value="" style="endArrow=classic;html=1;" parent="1" edge="1">
          <mxGeometry width="50" height="50" relative="1" as="geometry">
            <mxPoint x="-400" y="-330" as="sourcePoint" />
            <mxPoint x="-400.44" y="-505.62" as="targetPoint" />
          </mxGeometry>
        </mxCell>
        <mxCell id="oqRCxf0HyZeEFnFjLMWH-5" value="" style="endArrow=classic;html=1;entryX=0.686;entryY=0.5;entryDx=0;entryDy=0;entryPerimeter=0;" parent="1" edge="1">
          <mxGeometry width="50" height="50" relative="1" as="geometry">
            <mxPoint x="-400.44" y="-325.5" as="sourcePoint" />
            <mxPoint x="-479.98" y="-325.5" as="targetPoint" />
          </mxGeometry>
        </mxCell>
      </root>
    </mxGraphModel>
  </diagram>
</mxfile>
